<svg height="512pt" viewBox="-1 0 512 512" width="512pt" xmlns="http://www.w3.org/2000/svg"><g fill="#93a3af"><path d="m161.183594 20.253906v16.582032h49.746094v-16.582032c0-7.042968-5.710938-12.753906-12.757813-12.753906h-24.234375c-7.042969 0-12.753906 5.710938-12.753906 12.753906zm0 0"/><path d="m490.265625 166.550781h-16.582031v126.277344h16.582031c7.042969 0 12.753906-5.710937 12.753906-12.757813v-100.761718c0-7.046875-5.710937-12.757813-12.753906-12.757813zm0 0"/><path d="m82.101562 20.253906v16.582032h49.746094v-16.582032c0-7.042968-5.710937-12.753906-12.753906-12.753906h-24.238281c-7.042969 0-12.753907 5.710938-12.753907 12.753906zm0 0"/></g><path d="m475.582031 94.027344v352.859375c0 31.824219-25.789062 57.613281-57.613281 57.613281h-352.855469c-31.824219 0-57.617187-25.789062-57.617187-57.613281v-352.859375c0-31.824219 25.792968-57.613282 57.617187-57.613282h352.855469c31.824219 0 57.613281 25.792969 57.613281 57.613282zm0 0" fill="#ba6f3c"/><path d="m475.578125 94.027344v352.855468c0 31.832032-25.785156 57.617188-57.605469 57.617188h-26.027344c31.824219 0 57.609376-25.785156 57.609376-57.617188v-352.855468c0-31.824219-25.785157-57.609375-57.609376-57.609375h26.027344c31.820313 0 57.605469 25.785156 57.605469 57.609375zm0 0" fill="#aa5b26"/><path d="m475.578125 94.023438v81.191406h-468.078125v-81.191406c0-31.824219 25.785156-57.609376 57.617188-57.609376h352.855468c31.820313 0 57.605469 25.785157 57.605469 57.609376zm0 0" fill="#ebeef2"/><path d="m475.578125 94.023438v81.191406h-26.023437v-81.191406c0-31.824219-25.785157-57.609376-57.609376-57.609376h26.027344c31.820313 0 57.605469 25.785157 57.605469 57.609376zm0 0" fill="#d3d8df"/><path d="m383.386719 270.957031c0 78.339844-63.507813 141.847657-141.847657 141.847657-78.339843 0-141.847656-63.507813-141.847656-141.847657 0-78.339843 63.507813-141.847656 141.847656-141.847656 78.339844 0 141.847657 63.507813 141.847657 141.847656zm0 0" fill="#93a3af"/><path d="m241.539062 387.375c-64.191406 0-116.417968-52.222656-116.417968-116.417969 0-64.191406 52.226562-116.417969 116.417968-116.417969 64.195313 0 116.417969 52.226563 116.417969 116.417969 0 64.195313-52.222656 116.417969-116.417969 116.417969zm0 0" fill="#7b8c98"/><path d="m345.949219 270.953125c0 57.667969-46.746094 104.40625-104.402344 104.40625-14.007813 0-27.378906-2.761719-39.582031-7.757813-12.652344-5.195312-24.0625-12.792968-33.652344-22.230468-2.964844-2.902344-5.746094-5.996094-8.328125-9.238282-6.347656-7.898437-11.542969-16.75-15.375-26.289062-4.828125-12.011719-7.480469-25.144531-7.480469-38.886719 0-57.660156 46.75-104.40625 104.417969-104.40625 13.742187 0 26.863281 2.652344 38.878906 7.476563 9.539063 3.835937 18.375 9.03125 26.285157 15.367187 3.242187 2.582031 6.335937 5.375 9.25 8.335938 9.4375 9.589843 17.035156 21 22.21875 33.65625 5.007812 12.199219 7.769531 25.5625 7.769531 39.566406zm0 0" fill="#faaa3c"/><path d="m306.710938 189.394531-146.730469 146.738281c-6.34375-7.898437-11.539063-16.75-15.375-26.289062l135.820312-135.816406c9.539063 3.832031 18.375 9.03125 26.285157 15.367187zm0 0" fill="#ffcf64"/><path d="m338.183594 231.386719-136.21875 136.214843c-12.652344-5.195312-24.0625-12.792968-33.652344-22.230468l147.648438-147.640625c9.4375 9.589843 17.035156 21.003906 22.222656 33.65625zm0 0" fill="#ffcf64"/><path d="m418.347656 109.65625c0 14.777344-11.980468 26.753906-26.753906 26.753906-14.777344 0-26.753906-11.976562-26.753906-26.753906 0-14.773438 11.976562-26.753906 26.753906-26.753906 14.773438 0 26.753906 11.980468 26.753906 26.753906zm0 0" fill="#faaa3c"/><path d="m490.265625 159.050781h-7.183594v-65.027343c0-35.898438-29.207031-65.105469-65.105469-65.105469h-78.386718c-4.144532 0-7.5 3.359375-7.5 7.5s3.355468 7.5 7.5 7.5h78.386718c27.628907 0 50.105469 22.476562 50.105469 50.105469v73.691406h-118.730469c-27.203124-28.394532-65.476562-46.105469-107.8125-46.105469-42.335937 0-80.605468 17.707031-107.8125 46.105469h-118.726562v-73.691406c0-27.628907 22.476562-50.105469 50.105469-50.105469h241.820312c4.144531 0 7.5-3.359375 7.5-7.5s-3.355469-7.5-7.5-7.5h-88.5v-8.664063c.003907-11.167968-9.082031-20.253906-20.253906-20.253906h-24.234375c-11.167969 0-20.253906 9.085938-20.253906 20.253906v8.664063h-14.335938v-8.664063c0-11.167968-9.085937-20.253906-20.253906-20.253906h-24.238281c-11.167969 0-20.253907 9.085938-20.253907 20.253906v8.664063h-9.496093c-35.898438 0-65.105469 29.207031-65.105469 65.109375v81.175781.011719.011718 271.667969c0 35.898438 29.207031 65.105469 65.105469 65.105469h352.871093c35.898438 0 65.105469-29.207031 65.105469-65.105469v-24.566406c0-4.140625-3.359375-7.5-7.5-7.5-4.144531 0-7.5 3.359375-7.5 7.5v24.566406c0 27.628907-22.480469 50.105469-50.105469 50.105469h-352.871093c-27.628907 0-50.105469-22.480469-50.105469-50.105469v-264.179687h106.132812c-18.183593 24.738281-28.941406 55.257812-28.941406 88.242187 0 82.351563 67 149.347657 149.347656 149.347657 82.351563 0 149.347657-66.996094 149.347657-149.347657 0-32.984375-10.757813-63.503906-28.9375-88.242187h106.132812v140.953125c0 4.144531 3.355469 7.5 7.5 7.5 4.140625 0 7.5-3.355469 7.5-7.5v-23.339844h7.183594c11.167969 0 20.253906-9.085937 20.253906-20.257813v-100.761718c0-11.167969-9.085937-20.257813-20.253906-20.257813zm-321.582031-138.796875c0-2.894531 2.355468-5.253906 5.253906-5.253906h24.234375c2.898437 0 5.253906 2.355469 5.253906 5.253906v8.664063h-34.742187zm-79.082032 0c0-2.894531 2.359376-5.253906 5.253907-5.253906h24.238281c2.894531 0 5.253906 2.355469 5.253906 5.253906v8.664063h-34.746094zm151.9375 385.050782c-74.078124 0-134.347656-60.269532-134.347656-134.347657s60.269532-134.347656 134.347656-134.347656c74.078126 0 134.347657 60.269531 134.347657 134.347656s-60.269531 134.347657-134.347657 134.347657zm253.980469-125.234376c0 2.898438-2.359375 5.257813-5.253906 5.257813h-7.183594v-111.277344h7.183594c2.894531 0 5.253906 2.359375 5.253906 5.257813zm0 0"/><path d="m475.582031 348.828125c-4.144531 0-7.5 3.359375-7.5 7.5v33.339844c0 4.144531 3.355469 7.5 7.5 7.5 4.140625 0 7.5-3.355469 7.5-7.5v-33.339844c0-4.140625-3.359375-7.5-7.5-7.5zm0 0"/><path d="m241.539062 159.050781c-61.703124 0-111.90625 50.203125-111.90625 111.90625 0 61.707031 50.203126 111.90625 111.90625 111.90625 61.707032 0 111.90625-50.199219 111.90625-111.90625 0-61.703125-50.199218-111.90625-111.90625-111.90625zm0 208.8125c-53.433593 0-96.90625-43.472656-96.90625-96.90625 0-53.433593 43.472657-96.90625 96.90625-96.90625 53.433594 0 96.90625 43.472657 96.90625 96.90625 0 53.433594-43.472656 96.90625-96.90625 96.90625zm0 0"/><path d="m425.847656 109.65625c0-18.886719-15.367187-34.253906-34.253906-34.253906s-34.253906 15.367187-34.253906 34.253906c0 18.890625 15.363281 34.253906 34.253906 34.253906 18.886719 0 34.253906-15.367187 34.253906-34.253906zm-53.507812 0c0-10.617188 8.636718-19.253906 19.253906-19.253906 10.613281 0 19.25 8.636718 19.25 19.253906s-8.636719 19.253906-19.25 19.253906c-10.617188 0-19.253906-8.636718-19.253906-19.253906zm0 0"/><path d="m99.691406 80.582031h-38.628906c-4.140625 0-7.5 3.355469-7.5 7.5 0 4.140625 3.359375 7.5 7.5 7.5h38.628906c4.144532 0 7.5-3.359375 7.5-7.5 0-4.144531-3.355468-7.5-7.5-7.5zm0 0"/><path d="m99.691406 102.15625h-38.628906c-4.140625 0-7.5 3.359375-7.5 7.5 0 4.144531 3.359375 7.5 7.5 7.5h38.628906c4.144532 0 7.5-3.355469 7.5-7.5 0-4.140625-3.355468-7.5-7.5-7.5zm0 0"/><path d="m99.691406 123.734375h-38.628906c-4.140625 0-7.5 3.355469-7.5 7.5 0 4.140625 3.359375 7.5 7.5 7.5h38.628906c4.144532 0 7.5-3.359375 7.5-7.5 0-4.144531-3.355468-7.5-7.5-7.5zm0 0"/></svg>